<mxfile host="app.diagrams.net" modified="2024-01-19T00:27:50.972Z" agent="Mozilla/5.0 (Windows NT 10.0; Win64; x64) AppleWebKit/537.36 (KHTML, like Gecko) Chrome/120.0.0.0 Safari/537.36" etag="cs0hkuTKm1JkKbmVKJJs" version="22.1.21" type="github">
  <diagram name="Page-1" id="8oL-0W5mN_9sOhNC9saK">
    <mxGraphModel dx="1195" dy="660" grid="1" gridSize="10" guides="1" tooltips="1" connect="1" arrows="1" fold="1" page="1" pageScale="1" pageWidth="1169" pageHeight="827" math="0" shadow="0">
      <root>
        <mxCell id="0" />
        <mxCell id="1" parent="0" />
        <mxCell id="Ka9pO5wBZA2tuNpiD53m-1" value="" style="whiteSpace=wrap;html=1;aspect=fixed;glass=1;opacity=50;" vertex="1" parent="1">
          <mxGeometry width="827" height="827" as="geometry" />
        </mxCell>
      </root>
    </mxGraphModel>
  </diagram>
</mxfile>
